# xmcd
#
# Track frame offsets:
#	150
#	9603
#	19730
#	31138
#	46152
#	58939
#	72474
#	79453
#	89784
#	102853
#
# Disc length: 1545 seconds
#
# Revision: 1
# Processed by: cddbd v1.4PL0 Copyright (c) Steve Scherf et al.
# Submitted via: audiograbber 1.82.01
#
DISCID=8406070a
DTITLE=Various Artist - Country Gospel
DYEAR=1900
DGENRE=Gospel
TTITLE0=I Saw The Light Bill Monroe
TTITLE1=An Evening Prayer  Jim Reeves
TTITLE2=Dear God Patsy Cline
TTITLE3=All Gods Lovely Children Kenny Rogers
TTITLE4=Driftin' Too Far From Shore Roy Acuff
TTITLE5=Chapel In The Moonlight Faron Young
TTITLE6=Old Time Religion Jim Reeves
TTITLE7=Someone Bigger Than You And I Sons Of The Pioneers
TTITLE8=Hallelujah Special Carl Perkins
TTITLE9=When I Lay My Burden Down Roy Acuff
EXTD=
EXTT0=
EXTT1=
EXTT2=
EXTT3=
EXTT4=
EXTT5=
EXTT6=
EXTT7=
EXTT8=
EXTT9=
PLAYORDER=
